<svg xmlns="http://www.w3.org/2000/svg" width="414" height="142" viewBox="0 0 414 142">
  <style>text{font-family:'Segoe UI', Ubuntu, sans-serif;}</style>
  <rect x="0.5" y="0.5" width="413" height="141" rx="4.5" fill="#0d1117" stroke="#30363d"/>
  <text x="25" y="12" fill="#8b949e" font-size="10">Sessions per day, last 26 weeks</text>
  <g transform="translate(15, 0)">
    <text x="0" y="31" fill="#8b949e" font-size="9">Mon</text>
    <text x="0" y="72" fill="#8b949e" font-size="9">Wed</text>
    <text x="0" y="113" fill="#8b949e" font-size="9">Fri</text>
  </g>
  <rect width="11" height="11" x="40" y="20" rx="2" fill="#58a6ff"><title>2026-09-27: 9 session starts</title></rect>
  <rect width="11" height="11" x="40" y="34" rx="2" fill="#161b22"><title>2026-09-28: 0 session starts</title></rect>
  <rect width="11" height="11" x="40" y="48" rx="2" fill="#161b22"><title>2026-09-29: 0 session starts</title></rect>
  <rect width="11" height="11" x="40" y="62" rx="2" fill="#161b22"><title>2026-09-30: 0 session starts</title></rect>
  <rect width="11" height="11" x="40" y="76" rx="2" fill="#161b22"><title>2026-10-01: 0 session starts</title></rect>
  <rect width="11" height="11" x="40" y="90" rx="2" fill="#161b22"><title>2026-10-02: 0 session starts</title></rect>
  <rect width="11" height="11" x="40" y="104" rx="2" fill="#161b22"><title>2026-10-03: 0 session starts</title></rect>
  <rect width="11" height="11" x="54" y="20" rx="2" fill="#161b22"><title>2026-10-04: 0 session starts</title></rect>
  <rect width="11" height="11" x="54" y="34" rx="2" fill="#161b22"><title>2026-10-05: 0 session starts</title></rect>
  <rect width="11" height="11" x="54" y="48" rx="2" fill="#161b22"><title>2026-10-06: 0 session starts</title></rect>
  <rect width="11" height="11" x="54" y="62" rx="2" fill="#161b22"><title>2026-10-07: 0 session starts</title></rect>
  <rect width="11" height="11" x="54" y="76" rx="2" fill="#161b22"><title>2026-10-08: 0 session starts</title></rect>
  <rect width="11" height="11" x="54" y="90" rx="2" fill="#161b22"><title>2026-10-09: 0 session starts</title></rect>
  <rect width="11" height="11" x="54" y="104" rx="2" fill="#161b22"><title>2026-10-10: 0 session starts</title></rect>
  <rect width="11" height="11" x="68" y="20" rx="2" fill="#161b22"><title>2026-10-11: 0 session starts</title></rect>
  <rect width="11" height="11" x="68" y="34" rx="2" fill="#161b22"><title>2026-10-12: 0 session starts</title></rect>
  <rect width="11" height="11" x="68" y="48" rx="2" fill="#161b22"><title>2026-10-13: 0 session starts</title></rect>
  <rect width="11" height="11" x="68" y="62" rx="2" fill="#161b22"><title>2026-10-14: 0 session starts</title></rect>
  <rect width="11" height="11" x="68" y="76" rx="2" fill="#161b22"><title>2026-10-15: 0 session starts</title></rect>
  <rect width="11" height="11" x="68" y="90" rx="2" fill="#161b22"><title>2026-10-16: 0 session starts</title></rect>
  <rect width="11" height="11" x="68" y="104" rx="2" fill="#161b22"><title>2026-10-17: 0 session starts</title></rect>
  <rect width="11" height="11" x="82" y="20" rx="2" fill="#161b22"><title>2026-10-18: 0 session starts</title></rect>
  <rect width="11" height="11" x="82" y="34" rx="2" fill="#161b22"><title>2026-10-19: 0 session starts</title></rect>
  <rect width="11" height="11" x="82" y="48" rx="2" fill="#161b22"><title>2026-10-20: 0 session starts</title></rect>
  <rect width="11" height="11" x="82" y="62" rx="2" fill="#161b22"><title>2026-10-21: 0 session starts</title></rect>
  <rect width="11" height="11" x="82" y="76" rx="2" fill="#161b22"><title>2026-10-22: 0 session starts</title></rect>
  <rect width="11" height="11" x="82" y="90" rx="2" fill="#161b22"><title>2026-10-23: 0 session starts</title></rect>
  <rect width="11" height="11" x="82" y="104" rx="2" fill="#161b22"><title>2026-10-24: 0 session starts</title></rect>
  <rect width="11" height="11" x="96" y="20" rx="2" fill="#161b22"><title>2026-10-25: 0 session starts</title></rect>
  <rect width="11" height="11" x="96" y="34" rx="2" fill="#161b22"><title>2026-10-26: 0 session starts</title></rect>
  <rect width="11" height="11" x="96" y="48" rx="2" fill="#161b22"><title>2026-10-27: 0 session starts</title></rect>
  <rect width="11" height="11" x="96" y="62" rx="2" fill="#161b22"><title>2026-10-28: 0 session starts</title></rect>
  <rect width="11" height="11" x="96" y="76" rx="2" fill="#161b22"><title>2026-10-29: 0 session starts</title></rect>
  <rect width="11" height="11" x="96" y="90" rx="2" fill="#161b22"><title>2026-10-30: 0 session starts</title></rect>
  <rect width="11" height="11" x="96" y="104" rx="2" fill="#161b22"><title>2026-10-31: 0 session starts</title></rect>
  <rect width="11" height="11" x="110" y="20" rx="2" fill="#161b22"><title>2026-11-01: 0 session starts</title></rect>
  <rect width="11" height="11" x="110" y="34" rx="2" fill="#161b22"><title>2026-11-02: 0 session starts</title></rect>
  <rect width="11" height="11" x="110" y="48" rx="2" fill="#161b22"><title>2026-11-03: 0 session starts</title></rect>
  <rect width="11" height="11" x="110" y="62" rx="2" fill="#161b22"><title>2026-11-04: 0 session starts</title></rect>
  <rect width="11" height="11" x="110" y="76" rx="2" fill="#161b22"><title>2026-11-05: 0 session starts</title></rect>
  <rect width="11" height="11" x="110" y="90" rx="2" fill="#161b22"><title>2026-11-06: 0 session starts</title></rect>
  <rect width="11" height="11" x="110" y="104" rx="2" fill="#161b22"><title>2026-11-07: 0 session starts</title></rect>
  <rect width="11" height="11" x="124" y="20" rx="2" fill="#161b22"><title>2026-11-08: 0 session starts</title></rect>
  <rect width="11" height="11" x="124" y="34" rx="2" fill="#161b22"><title>2026-11-09: 0 session starts</title></rect>
  <rect width="11" height="11" x="124" y="48" rx="2" fill="#161b22"><title>2026-11-10: 0 session starts</title></rect>
  <rect width="11" height="11" x="124" y="62" rx="2" fill="#161b22"><title>2026-11-11: 0 session starts</title></rect>
  <rect width="11" height="11" x="124" y="76" rx="2" fill="#161b22"><title>2026-11-12: 0 session starts</title></rect>
  <rect width="11" height="11" x="124" y="90" rx="2" fill="#161b22"><title>2026-11-13: 0 session starts</title></rect>
  <rect width="11" height="11" x="124" y="104" rx="2" fill="#161b22"><title>2026-11-14: 0 session starts</title></rect>
  <rect width="11" height="11" x="138" y="20" rx="2" fill="#161b22"><title>2026-11-15: 0 session starts</title></rect>
  <rect width="11" height="11" x="138" y="34" rx="2" fill="#161b22"><title>2026-11-16: 0 session starts</title></rect>
  <rect width="11" height="11" x="138" y="48" rx="2" fill="#161b22"><title>2026-11-17: 0 session starts</title></rect>
  <rect width="11" height="11" x="138" y="62" rx="2" fill="#161b22"><title>2026-11-18: 0 session starts</title></rect>
  <rect width="11" height="11" x="138" y="76" rx="2" fill="#161b22"><title>2026-11-19: 0 session starts</title></rect>
  <rect width="11" height="11" x="138" y="90" rx="2" fill="#161b22"><title>2026-11-20: 0 session starts</title></rect>
  <rect width="11" height="11" x="138" y="104" rx="2" fill="#161b22"><title>2026-11-21: 0 session starts</title></rect>
  <rect width="11" height="11" x="152" y="20" rx="2" fill="#161b22"><title>2026-11-22: 0 session starts</title></rect>
  <rect width="11" height="11" x="152" y="34" rx="2" fill="#161b22"><title>2026-11-23: 0 session starts</title></rect>
  <rect width="11" height="11" x="152" y="48" rx="2" fill="#161b22"><title>2026-11-24: 0 session starts</title></rect>
  <rect width="11" height="11" x="152" y="62" rx="2" fill="#161b22"><title>2026-11-25: 0 session starts</title></rect>
  <rect width="11" height="11" x="152" y="76" rx="2" fill="#161b22"><title>2026-11-26: 0 session starts</title></rect>
  <rect width="11" height="11" x="152" y="90" rx="2" fill="#161b22"><title>2026-11-27: 0 session starts</title></rect>
  <rect width="11" height="11" x="152" y="104" rx="2" fill="#161b22"><title>2026-11-28: 0 session starts</title></rect>
  <rect width="11" height="11" x="166" y="20" rx="2" fill="#161b22"><title>2026-11-29: 0 session starts</title></rect>
  <rect width="11" height="11" x="166" y="34" rx="2" fill="#161b22"><title>2026-11-30: 0 session starts</title></rect>
  <rect width="11" height="11" x="166" y="48" rx="2" fill="#161b22"><title>2026-12-01: 0 session starts</title></rect>
  <rect width="11" height="11" x="166" y="62" rx="2" fill="#161b22"><title>2026-12-02: 0 session starts</title></rect>
  <rect width="11" height="11" x="166" y="76" rx="2" fill="#161b22"><title>2026-12-03: 0 session starts</title></rect>
  <rect width="11" height="11" x="166" y="90" rx="2" fill="#161b22"><title>2026-12-04: 0 session starts</title></rect>
  <rect width="11" height="11" x="166" y="104" rx="2" fill="#161b22"><title>2026-12-05: 0 session starts</title></rect>
  <rect width="11" height="11" x="180" y="20" rx="2" fill="#161b22"><title>2026-12-06: 0 session starts</title></rect>
  <rect width="11" height="11" x="180" y="34" rx="2" fill="#161b22"><title>2026-12-07: 0 session starts</title></rect>
  <rect width="11" height="11" x="180" y="48" rx="2" fill="#161b22"><title>2026-12-08: 0 session starts</title></rect>
  <rect width="11" height="11" x="180" y="62" rx="2" fill="#161b22"><title>2026-12-09: 0 session starts</title></rect>
  <rect width="11" height="11" x="180" y="76" rx="2" fill="#161b22"><title>2026-12-10: 0 session starts</title></rect>
  <rect width="11" height="11" x="180" y="90" rx="2" fill="#161b22"><title>2026-12-11: 0 session starts</title></rect>
  <rect width="11" height="11" x="180" y="104" rx="2" fill="#161b22"><title>2026-12-12: 0 session starts</title></rect>
  <rect width="11" height="11" x="194" y="20" rx="2" fill="#161b22"><title>2026-12-13: 0 session starts</title></rect>
  <rect width="11" height="11" x="194" y="34" rx="2" fill="#161b22"><title>2026-12-14: 0 session starts</title></rect>
  <rect width="11" height="11" x="194" y="48" rx="2" fill="#161b22"><title>2026-12-15: 0 session starts</title></rect>
  <rect width="11" height="11" x="194" y="62" rx="2" fill="#161b22"><title>2026-12-16: 0 session starts</title></rect>
  <rect width="11" height="11" x="194" y="76" rx="2" fill="#161b22"><title>2026-12-17: 0 session starts</title></rect>
  <rect width="11" height="11" x="194" y="90" rx="2" fill="#161b22"><title>2026-12-18: 0 session starts</title></rect>
  <rect width="11" height="11" x="194" y="104" rx="2" fill="#161b22"><title>2026-12-19: 0 session starts</title></rect>
  <rect width="11" height="11" x="208" y="20" rx="2" fill="#161b22"><title>2026-12-20: 0 session starts</title></rect>
  <rect width="11" height="11" x="208" y="34" rx="2" fill="#161b22"><title>2026-12-21: 0 session starts</title></rect>
  <rect width="11" height="11" x="208" y="48" rx="2" fill="#161b22"><title>2026-12-22: 0 session starts</title></rect>
  <rect width="11" height="11" x="208" y="62" rx="2" fill="#161b22"><title>2026-12-23: 0 session starts</title></rect>
  <rect width="11" height="11" x="208" y="76" rx="2" fill="#161b22"><title>2026-12-24: 0 session starts</title></rect>
  <rect width="11" height="11" x="208" y="90" rx="2" fill="#161b22"><title>2026-12-25: 0 session starts</title></rect>
  <rect width="11" height="11" x="208" y="104" rx="2" fill="#161b22"><title>2026-12-26: 0 session starts</title></rect>
  <rect width="11" height="11" x="222" y="20" rx="2" fill="#161b22"><title>2026-12-27: 0 session starts</title></rect>
  <rect width="11" height="11" x="222" y="34" rx="2" fill="#161b22"><title>2026-12-28: 0 session starts</title></rect>
  <rect width="11" height="11" x="222" y="48" rx="2" fill="#161b22"><title>2026-12-29: 0 session starts</title></rect>
  <rect width="11" height="11" x="222" y="62" rx="2" fill="#161b22"><title>2026-12-30: 0 session starts</title></rect>
  <rect width="11" height="11" x="222" y="76" rx="2" fill="#161b22"><title>2026-12-31: 0 session starts</title></rect>
  <rect width="11" height="11" x="222" y="90" rx="2" fill="#161b22"><title>2027-01-01: 0 session starts</title></rect>
  <rect width="11" height="11" x="222" y="104" rx="2" fill="#161b22"><title>2027-01-02: 0 session starts</title></rect>
  <rect width="11" height="11" x="236" y="20" rx="2" fill="#161b22"><title>2027-01-03: 0 session starts</title></rect>
  <rect width="11" height="11" x="236" y="34" rx="2" fill="#161b22"><title>2027-01-04: 0 session starts</title></rect>
  <rect width="11" height="11" x="236" y="48" rx="2" fill="#161b22"><title>2027-01-05: 0 session starts</title></rect>
  <rect width="11" height="11" x="236" y="62" rx="2" fill="#161b22"><title>2027-01-06: 0 session starts</title></rect>
  <rect width="11" height="11" x="236" y="76" rx="2" fill="#161b22"><title>2027-01-07: 0 session starts</title></rect>
  <rect width="11" height="11" x="236" y="90" rx="2" fill="#161b22"><title>2027-01-08: 0 session starts</title></rect>
  <rect width="11" height="11" x="236" y="104" rx="2" fill="#161b22"><title>2027-01-09: 0 session starts</title></rect>
  <rect width="11" height="11" x="250" y="20" rx="2" fill="#161b22"><title>2027-01-10: 0 session starts</title></rect>
  <rect width="11" height="11" x="250" y="34" rx="2" fill="#161b22"><title>2027-01-11: 0 session starts</title></rect>
  <rect width="11" height="11" x="250" y="48" rx="2" fill="#161b22"><title>2027-01-12: 0 session starts</title></rect>
  <rect width="11" height="11" x="250" y="62" rx="2" fill="#161b22"><title>2027-01-13: 0 session starts</title></rect>
  <rect width="11" height="11" x="250" y="76" rx="2" fill="#161b22"><title>2027-01-14: 0 session starts</title></rect>
  <rect width="11" height="11" x="250" y="90" rx="2" fill="#161b22"><title>2027-01-15: 0 session starts</title></rect>
  <rect width="11" height="11" x="250" y="104" rx="2" fill="#161b22"><title>2027-01-16: 0 session starts</title></rect>
  <rect width="11" height="11" x="264" y="20" rx="2" fill="#161b22"><title>2027-01-17: 0 session starts</title></rect>
  <rect width="11" height="11" x="264" y="34" rx="2" fill="#161b22"><title>2027-01-18: 0 session starts</title></rect>
  <rect width="11" height="11" x="264" y="48" rx="2" fill="#161b22"><title>2027-01-19: 0 session starts</title></rect>
  <rect width="11" height="11" x="264" y="62" rx="2" fill="#161b22"><title>2027-01-20: 0 session starts</title></rect>
  <rect width="11" height="11" x="264" y="76" rx="2" fill="#161b22"><title>2027-01-21: 0 session starts</title></rect>
  <rect width="11" height="11" x="264" y="90" rx="2" fill="#161b22"><title>2027-01-22: 0 session starts</title></rect>
  <rect width="11" height="11" x="264" y="104" rx="2" fill="#161b22"><title>2027-01-23: 0 session starts</title></rect>
  <rect width="11" height="11" x="278" y="20" rx="2" fill="#161b22"><title>2027-01-24: 0 session starts</title></rect>
  <rect width="11" height="11" x="278" y="34" rx="2" fill="#161b22"><title>2027-01-25: 0 session starts</title></rect>
  <rect width="11" height="11" x="278" y="48" rx="2" fill="#161b22"><title>2027-01-26: 0 session starts</title></rect>
  <rect width="11" height="11" x="278" y="62" rx="2" fill="#161b22"><title>2027-01-27: 0 session starts</title></rect>
  <rect width="11" height="11" x="278" y="76" rx="2" fill="#161b22"><title>2027-01-28: 0 session starts</title></rect>
  <rect width="11" height="11" x="278" y="90" rx="2" fill="#161b22"><title>2027-01-29: 0 session starts</title></rect>
  <rect width="11" height="11" x="278" y="104" rx="2" fill="#161b22"><title>2027-01-30: 0 session starts</title></rect>
  <rect width="11" height="11" x="292" y="20" rx="2" fill="#161b22"><title>2027-01-31: 0 session starts</title></rect>
  <rect width="11" height="11" x="292" y="34" rx="2" fill="#161b22"><title>2027-02-01: 0 session starts</title></rect>
  <rect width="11" height="11" x="292" y="48" rx="2" fill="#161b22"><title>2027-02-02: 0 session starts</title></rect>
  <rect width="11" height="11" x="292" y="62" rx="2" fill="#161b22"><title>2027-02-03: 0 session starts</title></rect>
  <rect width="11" height="11" x="292" y="76" rx="2" fill="#161b22"><title>2027-02-04: 0 session starts</title></rect>
  <rect width="11" height="11" x="292" y="90" rx="2" fill="#161b22"><title>2027-02-05: 0 session starts</title></rect>
  <rect width="11" height="11" x="292" y="104" rx="2" fill="#161b22"><title>2027-02-06: 0 session starts</title></rect>
  <rect width="11" height="11" x="306" y="20" rx="2" fill="#161b22"><title>2027-02-07: 0 session starts</title></rect>
  <rect width="11" height="11" x="306" y="34" rx="2" fill="#161b22"><title>2027-02-08: 0 session starts</title></rect>
  <rect width="11" height="11" x="306" y="48" rx="2" fill="#161b22"><title>2027-02-09: 0 session starts</title></rect>
  <rect width="11" height="11" x="306" y="62" rx="2" fill="#161b22"><title>2027-02-10: 0 session starts</title></rect>
  <rect width="11" height="11" x="306" y="76" rx="2" fill="#161b22"><title>2027-02-11: 0 session starts</title></rect>
  <rect width="11" height="11" x="306" y="90" rx="2" fill="#161b22"><title>2027-02-12: 0 session starts</title></rect>
  <rect width="11" height="11" x="306" y="104" rx="2" fill="#161b22"><title>2027-02-13: 0 session starts</title></rect>
  <rect width="11" height="11" x="320" y="20" rx="2" fill="#161b22"><title>2027-02-14: 0 session starts</title></rect>
  <rect width="11" height="11" x="320" y="34" rx="2" fill="#161b22"><title>2027-02-15: 0 session starts</title></rect>
  <rect width="11" height="11" x="320" y="48" rx="2" fill="#161b22"><title>2027-02-16: 0 session starts</title></rect>
  <rect width="11" height="11" x="320" y="62" rx="2" fill="#161b22"><title>2027-02-17: 0 session starts</title></rect>
  <rect width="11" height="11" x="320" y="76" rx="2" fill="#161b22"><title>2027-02-18: 0 session starts</title></rect>
  <rect width="11" height="11" x="320" y="90" rx="2" fill="#161b22"><title>2027-02-19: 0 session starts</title></rect>
  <rect width="11" height="11" x="320" y="104" rx="2" fill="#161b22"><title>2027-02-20: 0 session starts</title></rect>
  <rect width="11" height="11" x="334" y="20" rx="2" fill="#161b22"><title>2027-02-21: 0 session starts</title></rect>
  <rect width="11" height="11" x="334" y="34" rx="2" fill="#161b22"><title>2027-02-22: 0 session starts</title></rect>
  <rect width="11" height="11" x="334" y="48" rx="2" fill="#161b22"><title>2027-02-23: 0 session starts</title></rect>
  <rect width="11" height="11" x="334" y="62" rx="2" fill="#161b22"><title>2027-02-24: 0 session starts</title></rect>
  <rect width="11" height="11" x="334" y="76" rx="2" fill="#161b22"><title>2027-02-25: 0 session starts</title></rect>
  <rect width="11" height="11" x="334" y="90" rx="2" fill="#161b22"><title>2027-02-26: 0 session starts</title></rect>
  <rect width="11" height="11" x="334" y="104" rx="2" fill="#161b22"><title>2027-02-27: 0 session starts</title></rect>
  <rect width="11" height="11" x="348" y="20" rx="2" fill="#161b22"><title>2027-02-28: 0 session starts</title></rect>
  <rect width="11" height="11" x="348" y="34" rx="2" fill="#161b22"><title>2027-03-01: 0 session starts</title></rect>
  <rect width="11" height="11" x="348" y="48" rx="2" fill="#161b22"><title>2027-03-02: 0 session starts</title></rect>
  <rect width="11" height="11" x="348" y="62" rx="2" fill="#161b22"><title>2027-03-03: 0 session starts</title></rect>
  <rect width="11" height="11" x="348" y="76" rx="2" fill="#161b22"><title>2027-03-04: 0 session starts</title></rect>
  <rect width="11" height="11" x="348" y="90" rx="2" fill="#161b22"><title>2027-03-05: 0 session starts</title></rect>
  <rect width="11" height="11" x="348" y="104" rx="2" fill="#161b22"><title>2027-03-06: 0 session starts</title></rect>
  <rect width="11" height="11" x="362" y="20" rx="2" fill="#161b22"><title>2027-03-07: 0 session starts</title></rect>
  <rect width="11" height="11" x="362" y="34" rx="2" fill="#161b22"><title>2027-03-08: 0 session starts</title></rect>
  <rect width="11" height="11" x="362" y="48" rx="2" fill="#161b22"><title>2027-03-09: 0 session starts</title></rect>
  <rect width="11" height="11" x="362" y="62" rx="2" fill="#161b22"><title>2027-03-10: 0 session starts</title></rect>
  <rect width="11" height="11" x="362" y="76" rx="2" fill="#161b22"><title>2027-03-11: 0 session starts</title></rect>
  <rect width="11" height="11" x="362" y="90" rx="2" fill="#161b22"><title>2027-03-12: 0 session starts</title></rect>
  <rect width="11" height="11" x="362" y="104" rx="2" fill="#161b22"><title>2027-03-13: 0 session starts</title></rect>
  <rect width="11" height="11" x="376" y="20" rx="2" fill="#161b22"><title>2027-03-14: 0 session starts</title></rect>
  <rect width="11" height="11" x="376" y="34" rx="2" fill="#161b22"><title>2027-03-15: 0 session starts</title></rect>
  <rect width="11" height="11" x="376" y="48" rx="2" fill="#161b22"><title>2027-03-16: 0 session starts</title></rect>
  <rect width="11" height="11" x="376" y="62" rx="2" fill="#161b22"><title>2027-03-17: 0 session starts</title></rect>
  <rect width="11" height="11" x="376" y="76" rx="2" fill="#161b22"><title>2027-03-18: 0 session starts</title></rect>
  <rect width="11" height="11" x="376" y="90" rx="2" fill="#161b22"><title>2027-03-19: 0 session starts</title></rect>
  <rect width="11" height="11" x="376" y="104" rx="2" fill="#161b22"><title>2027-03-20: 0 session starts</title></rect>
  <rect width="11" height="11" x="390" y="20" rx="2" fill="#161b22"><title>2027-03-21: 0 session starts</title></rect>
  <rect width="11" height="11" x="390" y="34" rx="2" fill="#161b22"><title>2027-03-22: 0 session starts</title></rect>
  <rect width="11" height="11" x="390" y="48" rx="2" fill="#161b22"><title>2027-03-23: 0 session starts</title></rect>
  <rect width="11" height="11" x="390" y="62" rx="2" fill="#161b22"><title>2027-03-24: 0 session starts</title></rect>
  <rect width="11" height="11" x="390" y="76" rx="2" fill="#161b22"><title>2027-03-25: 0 session starts</title></rect>
  <rect width="11" height="11" x="390" y="90" rx="2" fill="#161b22"><title>2027-03-26: 0 session starts</title></rect>
  <rect width="11" height="11" x="390" y="104" rx="2" fill="#161b22"><title>2027-03-27: 0 session starts</title></rect>
  <text x="25" y="134" fill="#8b949e" font-size="10">Less</text>
  <rect width="10" height="10" x="58" y="125" rx="2" fill="#161b22"/>
  <rect width="10" height="10" x="71" y="125" rx="2" fill="#1a4a75"/>
  <rect width="10" height="10" x="84" y="125" rx="2" fill="#2668a5"/>
  <rect width="10" height="10" x="97" y="125" rx="2" fill="#3d8bdd"/>
  <rect width="10" height="10" x="110" y="125" rx="2" fill="#58a6ff"/>
  <text x="126" y="134" fill="#8b949e" font-size="10">More</text>
</svg>
